<?xml version="1.0"?>
<svg version="1.1" id="圖層_1" xmlns="http://www.w3.org/2000/svg" x="0" y="0" viewBox="0 0 100 100" xml:space="preserve"><path d="M76.185 90h-52.37a4.06 4.06 0 0 1-4.06-4.06V12.06A4.06 4.06 0 0 1 23.815 8h52.369a4.06 4.06 0 0 1 4.06 4.06v73.88A4.059 4.059 0 0 1 76.185 90z" fill="#f8b26a" stroke="#333" stroke-width="3" stroke-miterlimit="10"/><path d="M80.245 29.839h-60.49v-17.39a4.06 4.06 0 0 1 4.06-4.06h52.369a4.06 4.06 0 0 1 4.06 4.06v17.39z" fill="#333" stroke="#333" stroke-width="3" stroke-miterlimit="10"/><path fill="#abbd81" d="M40.645 12.874h34.253v12.481H40.645z"/><path fill="#333" d="M28.1 38.071h11.234v11.234H28.1z"/><path fill="#333" d="M44.383 38.071h11.234v11.234H44.383z"/><path fill="#333" d="M60.666 38.071H71.9v11.234H60.666z"/><path fill="#333" d="M28.1 54.354h11.234v11.234H28.1z"/><path fill="#333" d="M44.383 54.354h11.234v11.234H44.383z"/><path fill="#333" d="M60.666 54.354H71.9v11.234H60.666z"/><path fill="#333" d="M28.1 70.637h11.234v11.234H28.1z"/><path fill="#333" d="M44.383 70.637h11.234v11.234H44.383z"/><path fill="#333" d="M60.666 70.637H71.9v11.234H60.666z"/><metadata xmlns:d="https://loading.io/stock/"><d:name>calculator</d:name><d:tags>computer,price,cashier,numpad,calculator,business</d:tags><d:license>pro</d:license><d:slug>2bqu7l</d:slug></metadata></svg>